<mxfile host="Electron" agent="Mozilla/5.0 (Windows NT 10.0; Win64; x64) AppleWebKit/537.36 (KHTML, like Gecko) draw.io/24.7.8 Chrome/128.0.6613.36 Electron/32.0.1 Safari/537.36" version="24.7.8">
  <diagram name="Page-1" id="GJJkfPETHZydNLiU25wK">
    <mxGraphModel dx="864" dy="508" grid="1" gridSize="10" guides="1" tooltips="1" connect="1" arrows="1" fold="1" page="1" pageScale="1" pageWidth="850" pageHeight="1100" math="0" shadow="0">
      <root>
        <mxCell id="0" />
        <mxCell id="1" parent="0" />
        <mxCell id="Xb1zDqRpJxh5s1FYgzx0-4" value="" style="endArrow=classic;html=1;rounded=0;" edge="1" parent="1">
          <mxGeometry relative="1" as="geometry">
            <mxPoint x="80" y="800" as="sourcePoint" />
            <mxPoint x="80" y="800" as="targetPoint" />
            <Array as="points">
              <mxPoint x="80" y="40" />
              <mxPoint x="800" y="40" />
              <mxPoint x="800" y="800" />
              <mxPoint x="420" y="800" />
            </Array>
          </mxGeometry>
        </mxCell>
        <mxCell id="Xb1zDqRpJxh5s1FYgzx0-5" value="&lt;font style=&quot;font-size: 14px;&quot;&gt;Container&lt;/font&gt;" style="edgeLabel;resizable=0;html=1;;align=center;verticalAlign=middle;" connectable="0" vertex="1" parent="Xb1zDqRpJxh5s1FYgzx0-4">
          <mxGeometry relative="1" as="geometry">
            <mxPoint x="-390" as="offset" />
          </mxGeometry>
        </mxCell>
        <mxCell id="Xb1zDqRpJxh5s1FYgzx0-6" value="&lt;font style=&quot;font-size: 14px;&quot;&gt;&amp;lt;h1&amp;gt; Copy to Clipboard &amp;lt;/h1&amp;gt;&lt;/font&gt;" style="rounded=0;whiteSpace=wrap;html=1;" vertex="1" parent="1">
          <mxGeometry x="160" y="80" width="570" height="80" as="geometry" />
        </mxCell>
        <mxCell id="Xb1zDqRpJxh5s1FYgzx0-7" value="" style="endArrow=classic;html=1;rounded=0;" edge="1" parent="1">
          <mxGeometry relative="1" as="geometry">
            <mxPoint x="400" y="240" as="sourcePoint" />
            <mxPoint x="400" y="240" as="targetPoint" />
            <Array as="points">
              <mxPoint x="200" y="240" />
              <mxPoint x="200" y="390" />
              <mxPoint x="440" y="390" />
              <mxPoint x="680" y="390" />
              <mxPoint x="680" y="240" />
            </Array>
          </mxGeometry>
        </mxCell>
        <mxCell id="Xb1zDqRpJxh5s1FYgzx0-8" value="&lt;font style=&quot;font-size: 14px;&quot;&gt;&lt;font style=&quot;&quot;&gt;&amp;lt;Input&amp;gt; : To input&amp;nbsp;&lt;/font&gt;texts&amp;nbsp;&lt;/font&gt;" style="edgeLabel;resizable=0;html=1;;align=center;verticalAlign=middle;" connectable="0" vertex="1" parent="Xb1zDqRpJxh5s1FYgzx0-7">
          <mxGeometry relative="1" as="geometry">
            <mxPoint x="-46" y="-160" as="offset" />
          </mxGeometry>
        </mxCell>
        <mxCell id="Xb1zDqRpJxh5s1FYgzx0-9" value="&lt;font style=&quot;font-size: 14px;&quot;&gt;Default Text&amp;nbsp; Value: Copy me!&lt;/font&gt;" style="rounded=0;whiteSpace=wrap;html=1;" vertex="1" parent="1">
          <mxGeometry x="200" y="240" width="480" height="150" as="geometry" />
        </mxCell>
        <mxCell id="Xb1zDqRpJxh5s1FYgzx0-10" value="&lt;font style=&quot;font-size: 14px;&quot;&gt;&amp;lt;Button&amp;gt;&lt;/font&gt;" style="rounded=1;whiteSpace=wrap;html=1;" vertex="1" parent="1">
          <mxGeometry x="280" y="441" width="320" height="120" as="geometry" />
        </mxCell>
        <mxCell id="Xb1zDqRpJxh5s1FYgzx0-11" value="" style="endArrow=classic;html=1;rounded=0;" edge="1" parent="1">
          <mxGeometry relative="1" as="geometry">
            <mxPoint x="479" y="770" as="sourcePoint" />
            <mxPoint x="479" y="770" as="targetPoint" />
            <Array as="points">
              <mxPoint x="239" y="770" />
              <mxPoint x="239" y="640" />
              <mxPoint x="449" y="640" />
              <mxPoint x="679" y="640" />
              <mxPoint x="679" y="770" />
            </Array>
          </mxGeometry>
        </mxCell>
        <mxCell id="Xb1zDqRpJxh5s1FYgzx0-12" value="&lt;font style=&quot;font-size: 14px;&quot;&gt;&amp;lt;TextArea&amp;gt; : For Output Text&amp;nbsp;&lt;/font&gt;" style="edgeLabel;resizable=0;html=1;;align=center;verticalAlign=middle;" connectable="0" vertex="1" parent="Xb1zDqRpJxh5s1FYgzx0-11">
          <mxGeometry relative="1" as="geometry">
            <mxPoint y="-10" as="offset" />
          </mxGeometry>
        </mxCell>
        <mxCell id="Xb1zDqRpJxh5s1FYgzx0-13" value="&lt;font style=&quot;font-size: 14px;&quot;&gt;Default Text Value : Paste text here&lt;/font&gt;" style="rounded=0;whiteSpace=wrap;html=1;" vertex="1" parent="1">
          <mxGeometry x="240" y="640" width="440" height="130" as="geometry" />
        </mxCell>
      </root>
    </mxGraphModel>
  </diagram>
</mxfile>
